<svg xmlns="http://www.w3.org/2000/svg" width="880" height="131" viewBox="0 0 880 131">
<defs>
<linearGradient id="goGrad" x1="0" y1="0" x2="1" y2="0">
<stop offset="0%" stop-color="#00ADD8" stop-opacity="0.95"/>
<stop offset="100%" stop-color="#0891B2" stop-opacity="0.85"/>
</linearGradient>
<linearGradient id="tsGrad" x1="0" y1="0" x2="1" y2="0">
<stop offset="0%" stop-color="#3178C6" stop-opacity="0.95"/>
<stop offset="100%" stop-color="#1D4ED8" stop-opacity="0.85"/>
</linearGradient>
</defs>
<rect width="880" height="131" fill="#FAFAFA" rx="12"/>
<rect x=".5" y=".5" width="879" height="130" fill="none" stroke="#E5E7EB" rx="12"/>
<text x="440" y="30" text-anchor="middle" font-family="sans-serif" font-size="16" font-weight="700" fill="#111827">Performance Comparison</text>
<text x="440" y="48" text-anchor="middle" font-family="sans-serif" font-size="11" fill="#6B7280">Go vs TypeScript</text>
<g transform="translate(200,60)">
  <line x1="0.0" y1="0" x2="0.0" y2="31" stroke="#E5E7EB"/>
  <text x="0.0" y="47" text-anchor="middle" font-family="sans-serif" font-size="10" fill="#9CA3AF">1x</text>
  <line x1="290.0" y1="0" x2="290.0" y2="31" stroke="#E5E7EB"/>
  <text x="290.0" y="47" text-anchor="middle" font-family="sans-serif" font-size="10" fill="#9CA3AF">10x</text>
  <line x1="580.0" y1="0" x2="580.0" y2="31" stroke="#E5E7EB"/>
  <text x="580.0" y="47" text-anchor="middle" font-family="sans-serif" font-size="10" fill="#9CA3AF">100x</text>
  <text x="-10" y="17" text-anchor="end" font-family="sans-serif" font-size="11" fill="#4B5563">sha256Bench</text>
  <rect x="0" y="0" width="411.4" height="26" fill="url(#goGrad)" rx="4"/>
  <text x="419.4" y="17" font-family="sans-serif" font-size="11" font-weight="600" fill="#0E7490">26x</text>
</g>
<g transform="translate(340,107)">
  <rect x="0" width="14" height="14" fill="#00ADD8" rx="3"/>
<text x="18" y="11" font-family="sans-serif" font-size="11" fill="#4B5563">Go faster</text>
  <rect x="100" width="14" height="14" fill="#3178C6" rx="3"/>
<text x="118" y="11" font-family="sans-serif" font-size="11" fill="#4B5563">TS faster</text>
</g>
</svg>