<svg xmlns="http://www.w3.org/2000/svg" width="880" height="255" viewBox="0 0 880 255">
<defs>
<linearGradient id="goGrad" x1="0" y1="0" x2="1" y2="0">
<stop offset="0%" stop-color="#00ADD8" stop-opacity="0.95"/>
<stop offset="100%" stop-color="#0891B2" stop-opacity="0.85"/>
</linearGradient>
<linearGradient id="tsGrad" x1="0" y1="0" x2="1" y2="0">
<stop offset="0%" stop-color="#3178C6" stop-opacity="0.95"/>
<stop offset="100%" stop-color="#1D4ED8" stop-opacity="0.85"/>
</linearGradient>
</defs>
<rect width="880" height="255" fill="#FAFAFA" rx="12"/>
<rect x=".5" y=".5" width="879" height="254" fill="none" stroke="#E5E7EB" rx="12"/>
<text x="440" y="30" text-anchor="middle" font-family="sans-serif" font-size="16" font-weight="700" fill="#111827">Performance Comparison</text>
<text x="440" y="48" text-anchor="middle" font-family="sans-serif" font-size="11" fill="#6B7280">Go vs TypeScript SHA256 Benchmarks</text>
<g transform="translate(200,60)">
  <line x1="0.0" y1="0" x2="0.0" y2="45" stroke="#E5E7EB"/>
  <text x="0.0" y="61" text-anchor="middle" font-family="sans-serif" font-size="10" fill="#9CA3AF">1x</text>
  <line x1="290.0" y1="0" x2="290.0" y2="45" stroke="#E5E7EB"/>
  <text x="290.0" y="61" text-anchor="middle" font-family="sans-serif" font-size="10" fill="#9CA3AF">10x</text>
  <line x1="580.0" y1="0" x2="580.0" y2="45" stroke="#E5E7EB"/>
  <text x="580.0" y="61" text-anchor="middle" font-family="sans-serif" font-size="10" fill="#9CA3AF">100x</text>
  <text x="-10" y="17" text-anchor="end" font-family="sans-serif" font-size="11" fill="#111827">sha256Bench</text>
  <rect x="0" y="0" width="463.9" height="26" fill="url(#goGrad)" rx="4"/>
  <text x="471.9" y="17" font-family="sans-serif" font-size="11" font-weight="600" fill="#0E7490">40x</text>
  <text x="0" y="40" font-family="monospace" font-size="9" fill="#6B7280">Go: 79ns (12.7M ops/s)  |  TS: 3.12µs (320.0K ops/s)</text>
  <text x="0" y="54" font-family="monospace" font-size="9" fill="#9CA3AF">p50: 83ns / 875ns  |  p99: 84ns / 4.50µs</text>
</g>
<g transform="translate(440,135)">
  <rect x="-180" width="14" height="14" fill="#00ADD8" rx="3"/><text x="-162" y="11" font-family="sans-serif" font-size="11" fill="#111827">Go faster (1 wins)</text>
  <rect x="10" width="14" height="14" fill="#3178C6" rx="3"/><text x="28" y="11" font-family="sans-serif" font-size="11" fill="#111827">TS faster (0 wins)</text>
</g>
<rect x="40" y="165" width="800" height="70" fill="#F9FAFB" stroke="#E5E7EB" rx="6"/>
<text x="52" y="183" font-family="sans-serif" font-size="10" font-weight="600" fill="#111827">SUMMARY STATISTICS</text>
<text x="52" y="199" font-family="sans-serif" font-size="10" fill="#6B7280">• Go is 39.77x faster on average (geometric mean)</text>
<text x="52" y="213" font-family="monospace" font-size="9" fill="#9CA3AF">• Avg p50: Go 83ns / TS 875ns  |  Avg p99: Go 84ns / TS 4.50µs</text>
<text x="52" y="227" font-family="monospace" font-size="9" fill="#9CA3AF">• Avg ops/sec: Go 12.7M / TS 320.0K  |  Total benchmarks: 1</text>
</svg>