<svg xmlns="http://www.w3.org/2000/svg" width="520" height="440" viewBox="0 0 520 440">
<defs>
<linearGradient id="goGrad" x1="0" y1="0" x2="1" y2="0">
<stop offset="0%" stop-color="#00ADD8" stop-opacity="0.95"/>
<stop offset="100%" stop-color="#0891B2" stop-opacity="0.85"/>
</linearGradient>
<linearGradient id="tsGrad" x1="0" y1="0" x2="1" y2="0">
<stop offset="0%" stop-color="#3178C6" stop-opacity="0.95"/>
<stop offset="100%" stop-color="#1D4ED8" stop-opacity="0.85"/>
</linearGradient>
</defs>
<rect width="520" height="440" fill="#FAFAFA" rx="12"/>
<rect x=".5" y=".5" width="519" height="439" fill="none" stroke="#E5E7EB" rx="12"/>
<text x="260" y="30" text-anchor="middle" font-family="sans-serif" font-size="16" font-weight="700" fill="#111827">Performance Comparison</text>
<text x="260" y="48" text-anchor="middle" font-family="sans-serif" font-size="11" fill="#6B7280">Go vs TypeScript SHA256 Benchmarks</text>
<g transform="translate(216,260)">
  <line x1="-10" y1="0" x2="98" y2="0" stroke="#E5E7EB" stroke-width="1"/>
  <rect x="0" y="-19.2" width="40" height="19.2" fill="url(#goGrad)" rx="3"/>
  <text x="20" y="-23.2" text-anchor="middle" font-family="sans-serif" font-size="9" font-weight="600" fill="#0E7490">67.99µs</text>
  <text x="20" y="16" text-anchor="middle" font-family="sans-serif" font-size="9" font-weight="500" fill="#00ADD8">Go</text>
  <rect x="48" y="-180.0" width="40" height="180.0" fill="url(#tsGrad)" rx="3"/>
  <text x="68" y="-184.0" text-anchor="middle" font-family="sans-serif" font-size="9" font-weight="400" fill="#9CA3AF">637.04µs</text>
  <text x="68" y="16" text-anchor="middle" font-family="sans-serif" font-size="9" font-weight="500" fill="#3178C6">TS</text>
  <text x="44" y="34" text-anchor="middle" font-family="sans-serif" font-size="10" font-weight="500" fill="#111827">sha256Bench</text>
  <text x="44" y="48" text-anchor="middle" font-family="sans-serif" font-size="8" font-weight="600" fill="#00ADD8">9.4x faster</text>
</g>
<g transform="translate(260,320)">
  <rect x="-140" width="14" height="14" fill="#00ADD8" rx="3"/><text x="-122" y="11" font-family="sans-serif" font-size="11" fill="#111827">Go (1 wins)</text>
  <rect x="30" width="14" height="14" fill="#3178C6" rx="3"/><text x="48" y="11" font-family="sans-serif" font-size="11" fill="#111827">TypeScript (0 wins)</text>
</g>
<rect x="40" y="360" width="440" height="70" fill="#F9FAFB" stroke="#E5E7EB" rx="6"/>
<text x="52" y="378" font-family="sans-serif" font-size="10" font-weight="600" fill="#111827">SUMMARY STATISTICS</text>
<text x="52" y="394" font-family="sans-serif" font-size="10" fill="#6B7280">• Go is 8.06x faster on average (geometric mean)</text>
<text x="52" y="408" font-family="monospace" font-size="9" fill="#9CA3AF">• Avg p50: Go 83ns / TS 667ns  |  Avg p99: Go 84ns / TS 833ns</text>
<text x="52" y="422" font-family="monospace" font-size="9" fill="#9CA3AF">• Avg ops/sec: Go 12.0M / TS 1.5M  |  Total benchmarks: 1</text>
</svg>