<svg xmlns="http://www.w3.org/2000/svg" width="760" height="420" viewBox="0 0 760 420">
<defs>
<linearGradient id="goGrad" x1="0" y1="0" x2="1" y2="0">
<stop offset="0%" stop-color="#00ADD8" stop-opacity="0.95"/>
<stop offset="100%" stop-color="#0891B2" stop-opacity="0.85"/>
</linearGradient>
<linearGradient id="tsGrad" x1="0" y1="0" x2="1" y2="0">
<stop offset="0%" stop-color="#3178C6" stop-opacity="0.95"/>
<stop offset="100%" stop-color="#1D4ED8" stop-opacity="0.85"/>
</linearGradient>
</defs>
<rect width="760" height="420" fill="#FAFAFA" rx="12"/>
<rect x=".5" y=".5" width="759" height="419" fill="none" stroke="#E5E7EB" rx="12"/>
<text x="380" y="30" text-anchor="middle" font-family="sans-serif" font-size="16" font-weight="700" fill="#111827">Time Distribution</text>
<text x="380" y="48" text-anchor="middle" font-family="sans-serif" font-size="11" fill="#6B7280">Relative time spent in each benchmark</text>
<g transform="translate(155,170)">
  <path d="M0,0 L0.0,-50.0 A50,50 0 0 1 10.7,-48.8 Z" fill="#00ADD8" stroke="white" stroke-width="2"/>
  <path d="M0,0 L10.7,-48.8 A50,50 0 1 1 -0.0,-50.0 Z" fill="#3178C6" stroke="white" stroke-width="2"/>
  <circle cx="0" cy="0" r="18" fill="white" stroke="#00ADD8" stroke-width="2"/>
  <text x="0" y="4" text-anchor="middle" font-family="sans-serif" font-size="11" font-weight="600" fill="#00ADD8">Go</text>
  <text x="0" y="68" text-anchor="middle" font-family="sans-serif" font-size="10" font-weight="500" fill="#111827">sha256Bench</text>
  <text x="58" y="0" text-anchor="start" font-family="sans-serif" font-size="9" fill="#3178C6">97%</text>
  <text x="0" y="82" text-anchor="middle" font-family="monospace" font-size="8" fill="#9CA3AF">Go: 389.19µs | TS: 10.96ms</text>
</g>
<g transform="translate(305,170)">
  <path d="M0,0 L0.0,-50.0 A50,50 0 0 1 12.7,-48.4 Z" fill="#00ADD8" stroke="white" stroke-width="2"/>
  <path d="M0,0 L12.7,-48.4 A50,50 0 1 1 -0.0,-50.0 Z" fill="#3178C6" stroke="white" stroke-width="2"/>
  <circle cx="0" cy="0" r="18" fill="white" stroke="#00ADD8" stroke-width="2"/>
  <text x="0" y="4" text-anchor="middle" font-family="sans-serif" font-size="11" font-weight="600" fill="#00ADD8">Go</text>
  <text x="0" y="68" text-anchor="middle" font-family="sans-serif" font-size="10" font-weight="500" fill="#111827">sha256Bench2</text>
  <text x="58" y="0" text-anchor="start" font-family="sans-serif" font-size="9" fill="#3178C6">96%</text>
  <text x="0" y="82" text-anchor="middle" font-family="monospace" font-size="8" fill="#9CA3AF">Go: 386.74µs | TS: 9.05ms</text>
</g>
<g transform="translate(455,170)">
  <path d="M0,0 L0.0,-50.0 A50,50 0 0 1 10.0,-49.0 Z" fill="#00ADD8" stroke="white" stroke-width="2"/>
  <path d="M0,0 L10.0,-49.0 A50,50 0 1 1 -0.0,-50.0 Z" fill="#3178C6" stroke="white" stroke-width="2"/>
  <circle cx="0" cy="0" r="18" fill="white" stroke="#00ADD8" stroke-width="2"/>
  <text x="0" y="4" text-anchor="middle" font-family="sans-serif" font-size="11" font-weight="600" fill="#00ADD8">Go</text>
  <text x="0" y="68" text-anchor="middle" font-family="sans-serif" font-size="10" font-weight="500" fill="#111827">sha256Bench3</text>
  <text x="58" y="0" text-anchor="start" font-family="sans-serif" font-size="9" fill="#3178C6">97%</text>
  <text x="0" y="82" text-anchor="middle" font-family="monospace" font-size="8" fill="#9CA3AF">Go: 380.40µs | TS: 11.46ms</text>
</g>
<g transform="translate(605,170)">
  <path d="M0,0 L0.0,-50.0 A50,50 0 0 1 10.1,-49.0 Z" fill="#00ADD8" stroke="white" stroke-width="2"/>
  <path d="M0,0 L10.1,-49.0 A50,50 0 1 1 -0.0,-50.0 Z" fill="#3178C6" stroke="white" stroke-width="2"/>
  <circle cx="0" cy="0" r="18" fill="white" stroke="#00ADD8" stroke-width="2"/>
  <text x="0" y="4" text-anchor="middle" font-family="sans-serif" font-size="11" font-weight="600" fill="#00ADD8">Go</text>
  <text x="0" y="68" text-anchor="middle" font-family="sans-serif" font-size="10" font-weight="500" fill="#111827">sha256Bench4</text>
  <text x="58" y="0" text-anchor="start" font-family="sans-serif" font-size="9" fill="#3178C6">97%</text>
  <text x="0" y="82" text-anchor="middle" font-family="monospace" font-size="8" fill="#9CA3AF">Go: 388.17µs | TS: 11.58ms</text>
</g>
<g transform="translate(380,300)">
  <rect x="-140" width="14" height="14" fill="#00ADD8" rx="3"/><text x="-122" y="11" font-family="sans-serif" font-size="11" fill="#111827">Go (4 wins)</text>
  <rect x="30" width="14" height="14" fill="#3178C6" rx="3"/><text x="48" y="11" font-family="sans-serif" font-size="11" fill="#111827">TypeScript (0 wins)</text>
</g>
<rect x="40" y="340" width="680" height="70" fill="#F9FAFB" stroke="#E5E7EB" rx="6"/>
<text x="52" y="358" font-family="sans-serif" font-size="10" font-weight="600" fill="#111827">SUMMARY STATISTICS</text>
<text x="52" y="374" font-family="sans-serif" font-size="10" fill="#6B7280">• Go is 27.75x faster on average (geometric mean)  |  Total benchmarks: 4</text>
<text x="52" y="388" font-family="monospace" font-size="9" fill="#9CA3AF">• Avg p50: Go 83ns / TS 875ns  |  Avg p99: Go 104ns / TS 4.47µs</text>
<text x="52" y="402" font-family="monospace" font-size="9" fill="#9CA3AF">• Avg ops/sec: Go 13.0M / TS 469.1K</text>
</svg>