<svg xmlns="http://www.w3.org/2000/svg" width="980" height="680" viewBox="0 0 980 680">
<rect width="980" height="680" fill="#1E1E20"/>
<rect x="0.5" y="0.5" width="979" height="679" fill="none" stroke="rgba(255,255,255,0.12)" rx="10"/>
<defs>
<linearGradient id="goGrad" x1="0" y1="0" x2="1" y2="0">
<stop offset="0%" stop-color="#00ADD8" stop-opacity="0.95"/>
<stop offset="100%" stop-color="#0891B2" stop-opacity="0.8"/>
</linearGradient>
<linearGradient id="tsGrad" x1="0" y1="0" x2="1" y2="0">
<stop offset="0%" stop-color="#3178C6" stop-opacity="0.95"/>
<stop offset="100%" stop-color="#1D4ED8" stop-opacity="0.8"/>
</linearGradient>
<linearGradient id="rustGrad" x1="0" y1="0" x2="1" y2="0">
<stop offset="0%" stop-color="#DEA584" stop-opacity="0.95"/>
<stop offset="100%" stop-color="#B7410E" stop-opacity="0.8"/>
</linearGradient>
<filter id="barShadow" x="-5%" y="-15%" width="110%" height="140%">
<feDropShadow dx="0" dy="2" stdDeviation="2" flood-opacity="0.25"/>
</filter>
</defs>
<rect x="90.0" y="84.0" width="850.0" height="404.0" rx="8" fill="rgba(255,255,255,0.02)"/>
<line x1="90.0" y1="488.0" x2="940.0" y2="488.0" stroke="rgba(255,255,255,0.45)" stroke-width="1.2"/>
<line x1="90.0" y1="84.0" x2="90.0" y2="488.0" stroke="rgba(255,255,255,0.45)" stroke-width="1.2"/>
<line x1="90.0" y1="84.0" x2="940.0" y2="84.0" stroke="rgba(255,255,255,0.10)"/>
<line x1="84.0" y1="84.0" x2="90.0" y2="84.0" stroke="rgba(255,255,255,0.45)" stroke-width="1"/>
<text x="82.0" y="88.0" text-anchor="end" font-family="sans-serif" font-size="13" fill="rgba(255,255,255,0.45)">11659</text>
<line x1="90.0" y1="151.3" x2="940.0" y2="151.3" stroke="rgba(255,255,255,0.10)"/>
<line x1="84.0" y1="151.3" x2="90.0" y2="151.3" stroke="rgba(255,255,255,0.45)" stroke-width="1"/>
<text x="82.0" y="155.3" text-anchor="end" font-family="sans-serif" font-size="13" fill="rgba(255,255,255,0.45)">9716</text>
<line x1="90.0" y1="218.7" x2="940.0" y2="218.7" stroke="rgba(255,255,255,0.10)"/>
<line x1="84.0" y1="218.7" x2="90.0" y2="218.7" stroke="rgba(255,255,255,0.45)" stroke-width="1"/>
<text x="82.0" y="222.7" text-anchor="end" font-family="sans-serif" font-size="13" fill="rgba(255,255,255,0.45)">7773</text>
<line x1="90.0" y1="286.0" x2="940.0" y2="286.0" stroke="rgba(255,255,255,0.10)"/>
<line x1="84.0" y1="286.0" x2="90.0" y2="286.0" stroke="rgba(255,255,255,0.45)" stroke-width="1"/>
<text x="82.0" y="290.0" text-anchor="end" font-family="sans-serif" font-size="13" fill="rgba(255,255,255,0.45)">5830</text>
<line x1="90.0" y1="353.3" x2="940.0" y2="353.3" stroke="rgba(255,255,255,0.10)"/>
<line x1="84.0" y1="353.3" x2="90.0" y2="353.3" stroke="rgba(255,255,255,0.45)" stroke-width="1"/>
<text x="82.0" y="357.3" text-anchor="end" font-family="sans-serif" font-size="13" fill="rgba(255,255,255,0.45)">3886</text>
<line x1="90.0" y1="420.7" x2="940.0" y2="420.7" stroke="rgba(255,255,255,0.10)"/>
<line x1="84.0" y1="420.7" x2="90.0" y2="420.7" stroke="rgba(255,255,255,0.45)" stroke-width="1"/>
<text x="82.0" y="424.7" text-anchor="end" font-family="sans-serif" font-size="13" fill="rgba(255,255,255,0.45)">1943</text>
<line x1="90.0" y1="488.0" x2="940.0" y2="488.0" stroke="rgba(255,255,255,0.10)"/>
<line x1="84.0" y1="488.0" x2="90.0" y2="488.0" stroke="rgba(255,255,255,0.45)" stroke-width="1"/>
<text x="82.0" y="492.0" text-anchor="end" font-family="sans-serif" font-size="13" fill="rgba(255,255,255,0.45)">0</text>
<rect x="111.25" y="429.13" width="38.25" height="58.87" fill="none" stroke="rgba(255,255,255,0.23)" stroke-width="1.2"/>
<rect x="111.25" y="429.13" width="38.25" height="58.87" fill="url(#goGrad)" stroke="rgba(255,255,255,0.15)" stroke-width="1.5" filter="url(#barShadow)"/>
<line x1="132.50" y1="488.00" x2="132.50" y2="494.00" stroke="rgba(255,255,255,0.45)" stroke-width="1"/>
<text x="132.50" y="508.00" text-anchor="middle" font-family="sans-serif" font-size="13" fill="rgba(255,255,255,0.45)">n100</text>
<rect x="196.25" y="424.17" width="38.25" height="63.83" fill="none" stroke="rgba(255,255,255,0.23)" stroke-width="1.2"/>
<rect x="196.25" y="424.17" width="38.25" height="63.83" fill="url(#goGrad)" stroke="rgba(255,255,255,0.15)" stroke-width="1.5" filter="url(#barShadow)"/>
<line x1="217.50" y1="488.00" x2="217.50" y2="494.00" stroke="rgba(255,255,255,0.45)" stroke-width="1"/>
<text x="217.50" y="508.00" text-anchor="middle" font-family="sans-serif" font-size="13" fill="rgba(255,255,255,0.45)">n200</text>
<rect x="281.25" y="395.41" width="38.25" height="92.59" fill="none" stroke="rgba(255,255,255,0.23)" stroke-width="1.2"/>
<rect x="281.25" y="395.41" width="38.25" height="92.59" fill="url(#goGrad)" stroke="rgba(255,255,255,0.15)" stroke-width="1.5" filter="url(#barShadow)"/>
<line x1="302.50" y1="488.00" x2="302.50" y2="494.00" stroke="rgba(255,255,255,0.45)" stroke-width="1"/>
<text x="302.50" y="508.00" text-anchor="middle" font-family="sans-serif" font-size="13" fill="rgba(255,255,255,0.45)">n300</text>
<rect x="366.25" y="354.56" width="38.25" height="133.44" fill="none" stroke="rgba(255,255,255,0.23)" stroke-width="1.2"/>
<rect x="366.25" y="354.56" width="38.25" height="133.44" fill="url(#goGrad)" stroke="rgba(255,255,255,0.15)" stroke-width="1.5" filter="url(#barShadow)"/>
<line x1="387.50" y1="488.00" x2="387.50" y2="494.00" stroke="rgba(255,255,255,0.45)" stroke-width="1"/>
<text x="387.50" y="508.00" text-anchor="middle" font-family="sans-serif" font-size="13" fill="rgba(255,255,255,0.45)">n400</text>
<rect x="451.25" y="330.89" width="38.25" height="157.11" fill="none" stroke="rgba(255,255,255,0.23)" stroke-width="1.2"/>
<rect x="451.25" y="330.89" width="38.25" height="157.11" fill="url(#goGrad)" stroke="rgba(255,255,255,0.15)" stroke-width="1.5" filter="url(#barShadow)"/>
<line x1="472.50" y1="488.00" x2="472.50" y2="494.00" stroke="rgba(255,255,255,0.45)" stroke-width="1"/>
<text x="472.50" y="508.00" text-anchor="middle" font-family="sans-serif" font-size="13" fill="rgba(255,255,255,0.45)">n500</text>
<rect x="536.25" y="273.99" width="38.25" height="214.01" fill="none" stroke="rgba(255,255,255,0.23)" stroke-width="1.2"/>
<rect x="536.25" y="273.99" width="38.25" height="214.01" fill="url(#goGrad)" stroke="rgba(255,255,255,0.15)" stroke-width="1.5" filter="url(#barShadow)"/>
<line x1="557.50" y1="488.00" x2="557.50" y2="494.00" stroke="rgba(255,255,255,0.45)" stroke-width="1"/>
<text x="557.50" y="508.00" text-anchor="middle" font-family="sans-serif" font-size="13" fill="rgba(255,255,255,0.45)">n600</text>
<rect x="621.25" y="230.37" width="38.25" height="257.63" fill="none" stroke="rgba(255,255,255,0.23)" stroke-width="1.2"/>
<rect x="621.25" y="230.37" width="38.25" height="257.63" fill="url(#goGrad)" stroke="rgba(255,255,255,0.15)" stroke-width="1.5" filter="url(#barShadow)"/>
<line x1="642.50" y1="488.00" x2="642.50" y2="494.00" stroke="rgba(255,255,255,0.45)" stroke-width="1"/>
<text x="642.50" y="508.00" text-anchor="middle" font-family="sans-serif" font-size="13" fill="rgba(255,255,255,0.45)">n700</text>
<rect x="706.25" y="205.59" width="38.25" height="282.41" fill="none" stroke="rgba(255,255,255,0.23)" stroke-width="1.2"/>
<rect x="706.25" y="205.59" width="38.25" height="282.41" fill="url(#goGrad)" stroke="rgba(255,255,255,0.15)" stroke-width="1.5" filter="url(#barShadow)"/>
<line x1="727.50" y1="488.00" x2="727.50" y2="494.00" stroke="rgba(255,255,255,0.45)" stroke-width="1"/>
<text x="727.50" y="508.00" text-anchor="middle" font-family="sans-serif" font-size="13" fill="rgba(255,255,255,0.45)">n800</text>
<rect x="791.25" y="109.75" width="38.25" height="378.25" fill="none" stroke="rgba(255,255,255,0.23)" stroke-width="1.2"/>
<rect x="791.25" y="109.75" width="38.25" height="378.25" fill="url(#goGrad)" stroke="rgba(255,255,255,0.15)" stroke-width="1.5" filter="url(#barShadow)"/>
<line x1="812.50" y1="488.00" x2="812.50" y2="494.00" stroke="rgba(255,255,255,0.45)" stroke-width="1"/>
<text x="812.50" y="508.00" text-anchor="middle" font-family="sans-serif" font-size="13" fill="rgba(255,255,255,0.45)">n900</text>
<rect x="876.25" y="84.00" width="38.25" height="404.00" fill="none" stroke="rgba(255,255,255,0.23)" stroke-width="1.2"/>
<rect x="876.25" y="84.00" width="38.25" height="404.00" fill="url(#goGrad)" stroke="rgba(255,255,255,0.15)" stroke-width="1.5" filter="url(#barShadow)"/>
<line x1="897.50" y1="488.00" x2="897.50" y2="494.00" stroke="rgba(255,255,255,0.45)" stroke-width="1"/>
<text x="897.50" y="508.00" text-anchor="middle" font-family="sans-serif" font-size="13" fill="rgba(255,255,255,0.45)">n1000</text>
<path d="M 90.00 437.55 L 100.62 435.37 L 111.25 433.13 L 121.88 430.83 L 132.50 428.47 L 143.12 426.06 L 153.75 423.58 L 164.38 421.04 L 175.00 418.44 L 185.62 415.78 L 196.25 413.06 L 206.88 410.28 L 217.50 407.44 L 228.12 404.54 L 238.75 401.58 L 249.38 398.56 L 260.00 395.47 L 270.62 392.33 L 281.25 389.13 L 291.88 385.87 L 302.50 382.55 L 313.12 379.16 L 323.75 375.72 L 334.38 372.22 L 345.00 368.65 L 355.62 365.03 L 366.25 361.34 L 376.88 357.60 L 387.50 353.79 L 398.12 349.93 L 408.75 346.00 L 419.38 342.02 L 430.00 337.97 L 440.62 333.87 L 451.25 329.70 L 461.88 325.47 L 472.50 321.18 L 483.12 316.84 L 493.75 312.43 L 504.38 307.96 L 515.00 303.43 L 525.62 298.84 L 536.25 294.20 L 546.88 289.49 L 557.50 284.72 L 568.12 279.89 L 578.75 275.00 L 589.38 270.05 L 600.00 265.04 L 610.62 259.97 L 621.25 254.83 L 631.88 249.64 L 642.50 244.39 L 653.12 239.08 L 663.75 233.71 L 674.38 228.27 L 685.00 222.78 L 695.62 217.23 L 706.25 211.62 L 716.88 205.94 L 727.50 200.21 L 738.12 194.41 L 748.75 188.56 L 759.38 182.64 L 770.00 176.67 L 780.62 170.63 L 791.25 164.54 L 801.88 158.38 L 812.50 152.17 L 823.12 145.89 L 833.75 139.55 L 844.38 133.16 L 855.00 126.70 L 865.62 120.18 L 876.25 113.60 L 886.88 106.97 L 897.50 100.27 L 908.12 93.51 L 918.75 86.69 L 929.38 84.00 L 940.00 84.00" fill="none" stroke="#00ADD8" stroke-width="1.5" stroke-dasharray="4 3" opacity="0.9"/>
<text x="930.0" y="100.0" text-anchor="end" font-family="sans-serif" font-size="13" font-weight="700" fill="#00ADD8" paint-order="stroke" stroke="#1E1E20" stroke-width="3">mixed</text>
<text x="490.0" y="30" text-anchor="middle" font-family="sans-serif" font-size="16" font-weight="700" fill="#FFFFFF">Bubble Sort - Grouped Bars</text>
<text x="490.0" y="50" text-anchor="middle" font-family="sans-serif" font-size="13" fill="rgba(255,255,255,0.45)">Grouped bars per dataset size with statistical overlays</text>
<text x="515.0" y="534.0" text-anchor="middle" font-family="sans-serif" font-size="14" font-weight="700" fill="rgba(255,255,255,0.45)">Benchmark (natural order)</text>
<text x="14.0" y="290.0" transform="rotate(-90 14.0 290.0)" text-anchor="middle" font-family="sans-serif" font-size="14" font-weight="700" fill="rgba(255,255,255,0.45)">bytes/op</text>
<rect x="100.0" y="94.0" width="118" height="54.0" rx="8" fill="#1E1E20" stroke="rgba(255,255,255,0.14)" stroke-width="1"/>
<rect x="100.0" y="94.0" width="118" height="54.0" rx="8" fill="rgba(255,255,255,0.015)" fill-opacity="0.15"/>
<text x="110.0" y="110.0" font-family="sans-serif" font-size="11" font-weight="600" fill="rgba(255,255,255,0.45)">Legend</text>
<circle cx="112.0" cy="129.0" r="4.5" fill="#00ADD8"/>
<text x="122.0" y="132.0" font-family="sans-serif" font-size="11" fill="#FFFFFF">Go</text>
<rect x="90.0" y="552.0" width="850.0" height="104.0" rx="8" fill="rgba(255,255,255,0.015)" stroke="rgba(255,255,255,0.14)" stroke-width="1"/>
<circle cx="110.0" cy="572.0" r="5" fill="#00ADD8"/>
<text x="120.0" y="576.0" font-family="sans-serif" font-size="11" font-weight="700" fill="#FFFFFF">Go</text>
<circle cx="109.0" cy="586.0" r="2.8" fill="#FFBA07"/>
<text x="116.0" y="590.0" font-family="sans-serif" font-size="11" fill="rgba(255,255,255,0.45)">
mean: 5.75 KB/op</text>
<circle cx="109.0" cy="602.0" r="2.8" fill="#FFBA07"/>
<text x="116.0" y="606.0" font-family="sans-serif" font-size="11" fill="rgba(255,255,255,0.45)">min / max: 1.66 KB/op / 11.39 KB/op</text>
<circle cx="109.0" cy="618.0" r="2.8" fill="#FFBA07"/>
<text x="116.0" y="622.0" font-family="sans-serif" font-size="11" fill="rgba(255,255,255,0.45)">samples: 4,	R²: 0.990</text>
<circle cx="109.0" cy="634.0" r="2.8" fill="#FFBA07"/>
<text x="116.0" y="638.0" font-family="sans-serif" font-size="11" fill="rgba(255,255,255,0.45)">equation: y = 974.00 + 4.13·x + 0…</text>
</svg>
