<svg xmlns="http://www.w3.org/2000/svg" width="980" height="680" viewBox="0 0 980 680">
<rect width="980" height="680" fill="#1E1E20"/>
<rect x="0.5" y="0.5" width="979" height="679" fill="none" stroke="rgba(255,255,255,0.12)" rx="10"/>
<defs>
<linearGradient id="goGrad" x1="0" y1="0" x2="1" y2="0">
<stop offset="0%" stop-color="#00ADD8" stop-opacity="0.95"/>
<stop offset="100%" stop-color="#0891B2" stop-opacity="0.8"/>
</linearGradient>
<linearGradient id="tsGrad" x1="0" y1="0" x2="1" y2="0">
<stop offset="0%" stop-color="#3178C6" stop-opacity="0.95"/>
<stop offset="100%" stop-color="#1D4ED8" stop-opacity="0.8"/>
</linearGradient>
<linearGradient id="rustGrad" x1="0" y1="0" x2="1" y2="0">
<stop offset="0%" stop-color="#DEA584" stop-opacity="0.95"/>
<stop offset="100%" stop-color="#B7410E" stop-opacity="0.8"/>
</linearGradient>
<filter id="barShadow" x="-5%" y="-15%" width="110%" height="140%">
<feDropShadow dx="0" dy="2" stdDeviation="2" flood-opacity="0.25"/>
</filter>
</defs>
<rect x="90.0" y="84.0" width="850.0" height="404.0" rx="8" fill="rgba(255,255,255,0.02)"/>
<line x1="90.0" y1="488.0" x2="940.0" y2="488.0" stroke="rgba(255,255,255,0.45)" stroke-width="1.2"/>
<line x1="90.0" y1="84.0" x2="90.0" y2="488.0" stroke="rgba(255,255,255,0.45)" stroke-width="1.2"/>
<line x1="90.0" y1="116.0" x2="940.0" y2="116.0" stroke="rgba(255,255,255,0.10)"/>
<line x1="84.0" y1="116.0" x2="90.0" y2="116.0" stroke="rgba(255,255,255,0.45)" stroke-width="1"/>
<text x="82.0" y="120.0" text-anchor="end" font-family="sans-serif" font-size="13" fill="rgba(255,255,255,0.45)">1e4</text>
<line x1="90.0" y1="131.9" x2="940.0" y2="131.9" stroke="rgba(255,255,255,0.10)"/>
<line x1="84.0" y1="131.9" x2="90.0" y2="131.9" stroke="rgba(255,255,255,0.45)" stroke-width="1"/>
<line x1="90.0" y1="149.6" x2="940.0" y2="149.6" stroke="rgba(255,255,255,0.10)"/>
<line x1="84.0" y1="149.6" x2="90.0" y2="149.6" stroke="rgba(255,255,255,0.45)" stroke-width="1"/>
<line x1="90.0" y1="169.8" x2="940.0" y2="169.8" stroke="rgba(255,255,255,0.10)"/>
<line x1="84.0" y1="169.8" x2="90.0" y2="169.8" stroke="rgba(255,255,255,0.45)" stroke-width="1"/>
<text x="82.0" y="173.8" text-anchor="end" font-family="sans-serif" font-size="13" fill="rgba(255,255,255,0.45)">7.0K</text>
<line x1="90.0" y1="193.0" x2="940.0" y2="193.0" stroke="rgba(255,255,255,0.10)"/>
<line x1="84.0" y1="193.0" x2="90.0" y2="193.0" stroke="rgba(255,255,255,0.45)" stroke-width="1"/>
<line x1="90.0" y1="220.5" x2="940.0" y2="220.5" stroke="rgba(255,255,255,0.10)"/>
<line x1="84.0" y1="220.5" x2="90.0" y2="220.5" stroke="rgba(255,255,255,0.45)" stroke-width="1"/>
<text x="82.0" y="224.5" text-anchor="end" font-family="sans-serif" font-size="13" fill="rgba(255,255,255,0.45)">5.0K</text>
<line x1="90.0" y1="254.2" x2="940.0" y2="254.2" stroke="rgba(255,255,255,0.10)"/>
<line x1="84.0" y1="254.2" x2="90.0" y2="254.2" stroke="rgba(255,255,255,0.45)" stroke-width="1"/>
<line x1="90.0" y1="297.6" x2="940.0" y2="297.6" stroke="rgba(255,255,255,0.10)"/>
<line x1="84.0" y1="297.6" x2="90.0" y2="297.6" stroke="rgba(255,255,255,0.45)" stroke-width="1"/>
<text x="82.0" y="301.6" text-anchor="end" font-family="sans-serif" font-size="13" fill="rgba(255,255,255,0.45)">3.0K</text>
<line x1="90.0" y1="358.8" x2="940.0" y2="358.8" stroke="rgba(255,255,255,0.10)"/>
<line x1="84.0" y1="358.8" x2="90.0" y2="358.8" stroke="rgba(255,255,255,0.45)" stroke-width="1"/>
<line x1="90.0" y1="463.4" x2="940.0" y2="463.4" stroke="rgba(255,255,255,0.10)"/>
<line x1="84.0" y1="463.4" x2="90.0" y2="463.4" stroke="rgba(255,255,255,0.45)" stroke-width="1"/>
<text x="82.0" y="467.4" text-anchor="end" font-family="sans-serif" font-size="13" fill="rgba(255,255,255,0.45)">1e3</text>
<line x1="90.0" y1="479.3" x2="940.0" y2="479.3" stroke="rgba(255,255,255,0.10)"/>
<line x1="84.0" y1="479.3" x2="90.0" y2="479.3" stroke="rgba(255,255,255,0.45)" stroke-width="1"/>
<text x="82.0" y="483.3" text-anchor="end" font-family="sans-serif" font-size="13" fill="rgba(255,255,255,0.45)">900</text>
<rect x="111.25" y="383.41" width="38.25" height="104.59" fill="none" stroke="rgba(255,255,255,0.23)" stroke-width="1.2"/>
<rect x="111.25" y="383.41" width="38.25" height="104.59" fill="url(#goGrad)" stroke="rgba(255,255,255,0.15)" stroke-width="1.5" filter="url(#barShadow)"/>
<line x1="132.50" y1="488.00" x2="132.50" y2="494.00" stroke="rgba(255,255,255,0.45)" stroke-width="1"/>
<text x="132.50" y="508.00" text-anchor="middle" font-family="sans-serif" font-size="13" fill="rgba(255,255,255,0.45)">n100</text>
<rect x="196.25" y="371.22" width="38.25" height="116.78" fill="none" stroke="rgba(255,255,255,0.23)" stroke-width="1.2"/>
<rect x="196.25" y="371.22" width="38.25" height="116.78" fill="url(#goGrad)" stroke="rgba(255,255,255,0.15)" stroke-width="1.5" filter="url(#barShadow)"/>
<line x1="217.50" y1="488.00" x2="217.50" y2="494.00" stroke="rgba(255,255,255,0.45)" stroke-width="1"/>
<text x="217.50" y="508.00" text-anchor="middle" font-family="sans-serif" font-size="13" fill="rgba(255,255,255,0.45)">n200</text>
<rect x="281.25" y="315.09" width="38.25" height="172.91" fill="none" stroke="rgba(255,255,255,0.23)" stroke-width="1.2"/>
<rect x="281.25" y="315.09" width="38.25" height="172.91" fill="url(#goGrad)" stroke="rgba(255,255,255,0.15)" stroke-width="1.5" filter="url(#barShadow)"/>
<line x1="302.50" y1="488.00" x2="302.50" y2="494.00" stroke="rgba(255,255,255,0.45)" stroke-width="1"/>
<text x="302.50" y="508.00" text-anchor="middle" font-family="sans-serif" font-size="13" fill="rgba(255,255,255,0.45)">n300</text>
<rect x="366.25" y="259.94" width="38.25" height="228.06" fill="none" stroke="rgba(255,255,255,0.23)" stroke-width="1.2"/>
<rect x="366.25" y="259.94" width="38.25" height="228.06" fill="url(#goGrad)" stroke="rgba(255,255,255,0.15)" stroke-width="1.5" filter="url(#barShadow)"/>
<line x1="387.50" y1="488.00" x2="387.50" y2="494.00" stroke="rgba(255,255,255,0.45)" stroke-width="1"/>
<text x="387.50" y="508.00" text-anchor="middle" font-family="sans-serif" font-size="13" fill="rgba(255,255,255,0.45)">n400</text>
<rect x="451.25" y="235.30" width="38.25" height="252.70" fill="none" stroke="rgba(255,255,255,0.23)" stroke-width="1.2"/>
<rect x="451.25" y="235.30" width="38.25" height="252.70" fill="url(#goGrad)" stroke="rgba(255,255,255,0.15)" stroke-width="1.5" filter="url(#barShadow)"/>
<line x1="472.50" y1="488.00" x2="472.50" y2="494.00" stroke="rgba(255,255,255,0.45)" stroke-width="1"/>
<text x="472.50" y="508.00" text-anchor="middle" font-family="sans-serif" font-size="13" fill="rgba(255,255,255,0.45)">n500</text>
<rect x="536.25" y="188.67" width="38.25" height="299.33" fill="none" stroke="rgba(255,255,255,0.23)" stroke-width="1.2"/>
<rect x="536.25" y="188.67" width="38.25" height="299.33" fill="url(#goGrad)" stroke="rgba(255,255,255,0.15)" stroke-width="1.5" filter="url(#barShadow)"/>
<line x1="557.50" y1="488.00" x2="557.50" y2="494.00" stroke="rgba(255,255,255,0.45)" stroke-width="1"/>
<text x="557.50" y="508.00" text-anchor="middle" font-family="sans-serif" font-size="13" fill="rgba(255,255,255,0.45)">n600</text>
<rect x="621.25" y="160.67" width="38.25" height="327.33" fill="none" stroke="rgba(255,255,255,0.23)" stroke-width="1.2"/>
<rect x="621.25" y="160.67" width="38.25" height="327.33" fill="url(#goGrad)" stroke="rgba(255,255,255,0.15)" stroke-width="1.5" filter="url(#barShadow)"/>
<line x1="642.50" y1="488.00" x2="642.50" y2="494.00" stroke="rgba(255,255,255,0.45)" stroke-width="1"/>
<text x="642.50" y="508.00" text-anchor="middle" font-family="sans-serif" font-size="13" fill="rgba(255,255,255,0.45)">n700</text>
<rect x="706.25" y="146.82" width="38.25" height="341.18" fill="none" stroke="rgba(255,255,255,0.23)" stroke-width="1.2"/>
<rect x="706.25" y="146.82" width="38.25" height="341.18" fill="url(#goGrad)" stroke="rgba(255,255,255,0.15)" stroke-width="1.5" filter="url(#barShadow)"/>
<line x1="727.50" y1="488.00" x2="727.50" y2="494.00" stroke="rgba(255,255,255,0.45)" stroke-width="1"/>
<text x="727.50" y="508.00" text-anchor="middle" font-family="sans-serif" font-size="13" fill="rgba(255,255,255,0.45)">n800</text>
<rect x="791.25" y="102.73" width="38.25" height="385.27" fill="none" stroke="rgba(255,255,255,0.23)" stroke-width="1.2"/>
<rect x="791.25" y="102.73" width="38.25" height="385.27" fill="url(#goGrad)" stroke="rgba(255,255,255,0.15)" stroke-width="1.5" filter="url(#barShadow)"/>
<line x1="812.50" y1="488.00" x2="812.50" y2="494.00" stroke="rgba(255,255,255,0.45)" stroke-width="1"/>
<text x="812.50" y="508.00" text-anchor="middle" font-family="sans-serif" font-size="13" fill="rgba(255,255,255,0.45)">n900</text>
<rect x="876.25" y="92.79" width="38.25" height="395.21" fill="none" stroke="rgba(255,255,255,0.23)" stroke-width="1.2"/>
<rect x="876.25" y="92.79" width="38.25" height="395.21" fill="url(#goGrad)" stroke="rgba(255,255,255,0.15)" stroke-width="1.5" filter="url(#barShadow)"/>
<line x1="897.50" y1="488.00" x2="897.50" y2="494.00" stroke="rgba(255,255,255,0.45)" stroke-width="1"/>
<text x="897.50" y="508.00" text-anchor="middle" font-family="sans-serif" font-size="13" fill="rgba(255,255,255,0.45)">n1000</text>
<path d="M 90.00 406.69 L 100.62 400.32 L 111.25 394.04 L 121.88 387.85 L 132.50 381.75 L 143.12 375.74 L 153.75 369.82 L 164.38 363.98 L 175.00 358.24 L 185.62 352.58 L 196.25 347.00 L 206.88 341.50 L 217.50 336.09 L 228.12 330.75 L 238.75 325.49 L 249.38 320.30 L 260.00 315.19 L 270.62 310.15 L 281.25 305.19 L 291.88 300.29 L 302.50 295.46 L 313.12 290.69 L 323.75 285.99 L 334.38 281.36 L 345.00 276.78 L 355.62 272.27 L 366.25 267.81 L 376.88 263.42 L 387.50 259.08 L 398.12 254.79 L 408.75 250.56 L 419.38 246.39 L 430.00 242.26 L 440.62 238.19 L 451.25 234.16 L 461.88 230.19 L 472.50 226.26 L 483.12 222.38 L 493.75 218.54 L 504.38 214.75 L 515.00 211.00 L 525.62 207.29 L 536.25 203.63 L 546.88 200.01 L 557.50 196.43 L 568.12 192.88 L 578.75 189.38 L 589.38 185.91 L 600.00 182.48 L 610.62 179.09 L 621.25 175.73 L 631.88 172.41 L 642.50 169.12 L 653.12 165.87 L 663.75 162.64 L 674.38 159.45 L 685.00 156.30 L 695.62 153.17 L 706.25 150.07 L 716.88 147.01 L 727.50 143.97 L 738.12 140.96 L 748.75 137.98 L 759.38 135.03 L 770.00 132.11 L 780.62 129.21 L 791.25 126.34 L 801.88 123.50 L 812.50 120.68 L 823.12 117.88 L 833.75 115.11 L 844.38 112.37 L 855.00 109.65 L 865.62 106.95 L 876.25 104.27 L 886.88 101.62 L 897.50 98.99 L 908.12 96.39 L 918.75 93.80 L 929.38 91.24 L 940.00 88.69" fill="none" stroke="#00ADD8" stroke-width="1.5" stroke-dasharray="4 3" opacity="0.9"/>
<text x="930.0" y="100.0" text-anchor="end" font-family="sans-serif" font-size="13" font-weight="700" fill="#00ADD8" paint-order="stroke" stroke="#1E1E20" stroke-width="3">mixed</text>
<text x="490.0" y="30" text-anchor="middle" font-family="sans-serif" font-size="16" font-weight="700" fill="#FFFFFF">Bubble Sort - Grouped Bars</text>
<text x="490.0" y="50" text-anchor="middle" font-family="sans-serif" font-size="13" fill="rgba(255,255,255,0.45)">Grouped bars per dataset size with statistical overlays</text>
<text x="515.0" y="534.0" text-anchor="middle" font-family="sans-serif" font-size="14" font-weight="700" fill="rgba(255,255,255,0.45)">Benchmark (natural order)</text>
<text x="14.0" y="290.0" transform="rotate(-90 14.0 290.0)" text-anchor="middle" font-family="sans-serif" font-size="14" font-weight="700" fill="rgba(255,255,255,0.45)">bytes/op (log10 scale)</text>
<rect x="100.0" y="94.0" width="118" height="54.0" rx="8" fill="#1E1E20" stroke="rgba(255,255,255,0.14)" stroke-width="1"/>
<rect x="100.0" y="94.0" width="118" height="54.0" rx="8" fill="rgba(255,255,255,0.015)" fill-opacity="0.15"/>
<text x="110.0" y="110.0" font-family="sans-serif" font-size="11" font-weight="600" fill="rgba(255,255,255,0.45)">Legend</text>
<circle cx="112.0" cy="129.0" r="4.5" fill="#00ADD8"/>
<text x="122.0" y="132.0" font-family="sans-serif" font-size="11" fill="#FFFFFF">Go</text>
<rect x="90.0" y="552.0" width="850.0" height="104.0" rx="8" fill="rgba(255,255,255,0.015)" stroke="rgba(255,255,255,0.14)" stroke-width="1"/>
<circle cx="110.0" cy="572.0" r="5" fill="#00ADD8"/>
<text x="120.0" y="576.0" font-family="sans-serif" font-size="11" font-weight="700" fill="#FFFFFF">Go</text>
<circle cx="109.0" cy="586.0" r="2.8" fill="#FFBA07"/>
<text x="116.0" y="590.0" font-family="sans-serif" font-size="11" fill="rgba(255,255,255,0.45)">
mean: 5.75 KB/op</text>
<circle cx="109.0" cy="602.0" r="2.8" fill="#FFBA07"/>
<text x="116.0" y="606.0" font-family="sans-serif" font-size="11" fill="rgba(255,255,255,0.45)">min / max: 1.66 KB/op / 11.39 KB/op</text>
<circle cx="109.0" cy="618.0" r="2.8" fill="#FFBA07"/>
<text x="116.0" y="622.0" font-family="sans-serif" font-size="11" fill="rgba(255,255,255,0.45)">samples: 4,	R²: 0.990</text>
<circle cx="109.0" cy="634.0" r="2.8" fill="#FFBA07"/>
<text x="116.0" y="638.0" font-family="sans-serif" font-size="11" fill="rgba(255,255,255,0.45)">equation: y = 974.00 + 4.13·x + 0…</text>
</svg>
