<svg xmlns="http://www.w3.org/2000/svg" width="980" height="680" viewBox="0 0 980 680">
<rect width="980" height="680" fill="#1E1E20"/>
<rect x="0.5" y="0.5" width="979" height="679" fill="none" stroke="rgba(255,255,255,0.12)" rx="10"/>
<defs>
<linearGradient id="goGrad" x1="0" y1="0" x2="1" y2="0">
<stop offset="0%" stop-color="#00ADD8" stop-opacity="0.95"/>
<stop offset="100%" stop-color="#0891B2" stop-opacity="0.8"/>
</linearGradient>
<linearGradient id="tsGrad" x1="0" y1="0" x2="1" y2="0">
<stop offset="0%" stop-color="#3178C6" stop-opacity="0.95"/>
<stop offset="100%" stop-color="#1D4ED8" stop-opacity="0.8"/>
</linearGradient>
<linearGradient id="rustGrad" x1="0" y1="0" x2="1" y2="0">
<stop offset="0%" stop-color="#DEA584" stop-opacity="0.95"/>
<stop offset="100%" stop-color="#B7410E" stop-opacity="0.8"/>
</linearGradient>
<filter id="barShadow" x="-5%" y="-15%" width="110%" height="140%">
<feDropShadow dx="0" dy="2" stdDeviation="2" flood-opacity="0.25"/>
</filter>
</defs>
<rect x="90.0" y="84.0" width="850.0" height="404.0" rx="8" fill="rgba(255,255,255,0.02)"/>
<line x1="90.0" y1="488.0" x2="940.0" y2="488.0" stroke="rgba(255,255,255,0.45)" stroke-width="1.2"/>
<line x1="90.0" y1="84.0" x2="90.0" y2="488.0" stroke="rgba(255,255,255,0.45)" stroke-width="1.2"/>
<line x1="90.0" y1="93.2" x2="940.0" y2="93.2" stroke="rgba(255,255,255,0.10)"/>
<line x1="84.0" y1="93.2" x2="90.0" y2="93.2" stroke="rgba(255,255,255,0.45)" stroke-width="1"/>
<text x="82.0" y="97.2" text-anchor="end" font-family="sans-serif" font-size="13" fill="rgba(255,255,255,0.45)">1e4</text>
<line x1="90.0" y1="98.4" x2="940.0" y2="98.4" stroke="rgba(255,255,255,0.10)"/>
<line x1="84.0" y1="98.4" x2="90.0" y2="98.4" stroke="rgba(255,255,255,0.45)" stroke-width="1"/>
<line x1="90.0" y1="104.3" x2="940.0" y2="104.3" stroke="rgba(255,255,255,0.10)"/>
<line x1="84.0" y1="104.3" x2="90.0" y2="104.3" stroke="rgba(255,255,255,0.45)" stroke-width="1"/>
<line x1="90.0" y1="110.9" x2="940.0" y2="110.9" stroke="rgba(255,255,255,0.10)"/>
<line x1="84.0" y1="110.9" x2="90.0" y2="110.9" stroke="rgba(255,255,255,0.45)" stroke-width="1"/>
<line x1="90.0" y1="118.6" x2="940.0" y2="118.6" stroke="rgba(255,255,255,0.10)"/>
<line x1="84.0" y1="118.6" x2="90.0" y2="118.6" stroke="rgba(255,255,255,0.45)" stroke-width="1"/>
<line x1="90.0" y1="127.6" x2="940.0" y2="127.6" stroke="rgba(255,255,255,0.10)"/>
<line x1="84.0" y1="127.6" x2="90.0" y2="127.6" stroke="rgba(255,255,255,0.45)" stroke-width="1"/>
<line x1="90.0" y1="138.7" x2="940.0" y2="138.7" stroke="rgba(255,255,255,0.10)"/>
<line x1="84.0" y1="138.7" x2="90.0" y2="138.7" stroke="rgba(255,255,255,0.45)" stroke-width="1"/>
<line x1="90.0" y1="152.9" x2="940.0" y2="152.9" stroke="rgba(255,255,255,0.10)"/>
<line x1="84.0" y1="152.9" x2="90.0" y2="152.9" stroke="rgba(255,255,255,0.45)" stroke-width="1"/>
<line x1="90.0" y1="173.1" x2="940.0" y2="173.1" stroke="rgba(255,255,255,0.10)"/>
<line x1="84.0" y1="173.1" x2="90.0" y2="173.1" stroke="rgba(255,255,255,0.45)" stroke-width="1"/>
<line x1="90.0" y1="207.5" x2="940.0" y2="207.5" stroke="rgba(255,255,255,0.10)"/>
<line x1="84.0" y1="207.5" x2="90.0" y2="207.5" stroke="rgba(255,255,255,0.45)" stroke-width="1"/>
<text x="82.0" y="211.5" text-anchor="end" font-family="sans-serif" font-size="13" fill="rgba(255,255,255,0.45)">1e3</text>
<line x1="90.0" y1="212.7" x2="940.0" y2="212.7" stroke="rgba(255,255,255,0.10)"/>
<line x1="84.0" y1="212.7" x2="90.0" y2="212.7" stroke="rgba(255,255,255,0.45)" stroke-width="1"/>
<line x1="90.0" y1="218.5" x2="940.0" y2="218.5" stroke="rgba(255,255,255,0.10)"/>
<line x1="84.0" y1="218.5" x2="90.0" y2="218.5" stroke="rgba(255,255,255,0.45)" stroke-width="1"/>
<text x="82.0" y="222.5" text-anchor="end" font-family="sans-serif" font-size="13" fill="rgba(255,255,255,0.45)">800</text>
<line x1="90.0" y1="225.1" x2="940.0" y2="225.1" stroke="rgba(255,255,255,0.10)"/>
<line x1="84.0" y1="225.1" x2="90.0" y2="225.1" stroke="rgba(255,255,255,0.45)" stroke-width="1"/>
<line x1="90.0" y1="232.8" x2="940.0" y2="232.8" stroke="rgba(255,255,255,0.10)"/>
<line x1="84.0" y1="232.8" x2="90.0" y2="232.8" stroke="rgba(255,255,255,0.45)" stroke-width="1"/>
<line x1="90.0" y1="241.8" x2="940.0" y2="241.8" stroke="rgba(255,255,255,0.10)"/>
<line x1="84.0" y1="241.8" x2="90.0" y2="241.8" stroke="rgba(255,255,255,0.45)" stroke-width="1"/>
<line x1="90.0" y1="252.9" x2="940.0" y2="252.9" stroke="rgba(255,255,255,0.10)"/>
<line x1="84.0" y1="252.9" x2="90.0" y2="252.9" stroke="rgba(255,255,255,0.45)" stroke-width="1"/>
<line x1="90.0" y1="267.2" x2="940.0" y2="267.2" stroke="rgba(255,255,255,0.10)"/>
<line x1="84.0" y1="267.2" x2="90.0" y2="267.2" stroke="rgba(255,255,255,0.45)" stroke-width="1"/>
<line x1="90.0" y1="287.3" x2="940.0" y2="287.3" stroke="rgba(255,255,255,0.10)"/>
<line x1="84.0" y1="287.3" x2="90.0" y2="287.3" stroke="rgba(255,255,255,0.45)" stroke-width="1"/>
<text x="82.0" y="291.3" text-anchor="end" font-family="sans-serif" font-size="13" fill="rgba(255,255,255,0.45)">200</text>
<line x1="90.0" y1="321.7" x2="940.0" y2="321.7" stroke="rgba(255,255,255,0.10)"/>
<line x1="84.0" y1="321.7" x2="90.0" y2="321.7" stroke="rgba(255,255,255,0.45)" stroke-width="1"/>
<text x="82.0" y="325.7" text-anchor="end" font-family="sans-serif" font-size="13" fill="rgba(255,255,255,0.45)">1e2</text>
<line x1="90.0" y1="326.9" x2="940.0" y2="326.9" stroke="rgba(255,255,255,0.10)"/>
<line x1="84.0" y1="326.9" x2="90.0" y2="326.9" stroke="rgba(255,255,255,0.45)" stroke-width="1"/>
<line x1="90.0" y1="332.8" x2="940.0" y2="332.8" stroke="rgba(255,255,255,0.10)"/>
<line x1="84.0" y1="332.8" x2="90.0" y2="332.8" stroke="rgba(255,255,255,0.45)" stroke-width="1"/>
<line x1="90.0" y1="339.4" x2="940.0" y2="339.4" stroke="rgba(255,255,255,0.10)"/>
<line x1="84.0" y1="339.4" x2="90.0" y2="339.4" stroke="rgba(255,255,255,0.45)" stroke-width="1"/>
<line x1="90.0" y1="347.0" x2="940.0" y2="347.0" stroke="rgba(255,255,255,0.10)"/>
<line x1="84.0" y1="347.0" x2="90.0" y2="347.0" stroke="rgba(255,255,255,0.45)" stroke-width="1"/>
<text x="82.0" y="351.0" text-anchor="end" font-family="sans-serif" font-size="13" fill="rgba(255,255,255,0.45)">60</text>
<line x1="90.0" y1="356.1" x2="940.0" y2="356.1" stroke="rgba(255,255,255,0.10)"/>
<line x1="84.0" y1="356.1" x2="90.0" y2="356.1" stroke="rgba(255,255,255,0.45)" stroke-width="1"/>
<line x1="90.0" y1="367.1" x2="940.0" y2="367.1" stroke="rgba(255,255,255,0.10)"/>
<line x1="84.0" y1="367.1" x2="90.0" y2="367.1" stroke="rgba(255,255,255,0.45)" stroke-width="1"/>
<line x1="90.0" y1="381.4" x2="940.0" y2="381.4" stroke="rgba(255,255,255,0.10)"/>
<line x1="84.0" y1="381.4" x2="90.0" y2="381.4" stroke="rgba(255,255,255,0.45)" stroke-width="1"/>
<line x1="90.0" y1="401.5" x2="940.0" y2="401.5" stroke="rgba(255,255,255,0.10)"/>
<line x1="84.0" y1="401.5" x2="90.0" y2="401.5" stroke="rgba(255,255,255,0.45)" stroke-width="1"/>
<line x1="90.0" y1="435.9" x2="940.0" y2="435.9" stroke="rgba(255,255,255,0.10)"/>
<line x1="84.0" y1="435.9" x2="90.0" y2="435.9" stroke="rgba(255,255,255,0.45)" stroke-width="1"/>
<text x="82.0" y="439.9" text-anchor="end" font-family="sans-serif" font-size="13" fill="rgba(255,255,255,0.45)">1e1</text>
<line x1="90.0" y1="441.1" x2="940.0" y2="441.1" stroke="rgba(255,255,255,0.10)"/>
<line x1="84.0" y1="441.1" x2="90.0" y2="441.1" stroke="rgba(255,255,255,0.45)" stroke-width="1"/>
<line x1="90.0" y1="447.0" x2="940.0" y2="447.0" stroke="rgba(255,255,255,0.10)"/>
<line x1="84.0" y1="447.0" x2="90.0" y2="447.0" stroke="rgba(255,255,255,0.45)" stroke-width="1"/>
<line x1="90.0" y1="453.6" x2="940.0" y2="453.6" stroke="rgba(255,255,255,0.10)"/>
<line x1="84.0" y1="453.6" x2="90.0" y2="453.6" stroke="rgba(255,255,255,0.45)" stroke-width="1"/>
<line x1="90.0" y1="461.3" x2="940.0" y2="461.3" stroke="rgba(255,255,255,0.10)"/>
<line x1="84.0" y1="461.3" x2="90.0" y2="461.3" stroke="rgba(255,255,255,0.45)" stroke-width="1"/>
<line x1="90.0" y1="470.3" x2="940.0" y2="470.3" stroke="rgba(255,255,255,0.10)"/>
<line x1="84.0" y1="470.3" x2="90.0" y2="470.3" stroke="rgba(255,255,255,0.45)" stroke-width="1"/>
<line x1="90.0" y1="481.4" x2="940.0" y2="481.4" stroke="rgba(255,255,255,0.10)"/>
<line x1="84.0" y1="481.4" x2="90.0" y2="481.4" stroke="rgba(255,255,255,0.45)" stroke-width="1"/>
<text x="82.0" y="485.4" text-anchor="end" font-family="sans-serif" font-size="13" fill="rgba(255,255,255,0.45)">4.00</text>
<rect x="100.62" y="215.05" width="19.12" height="272.95" fill="none" stroke="rgba(255,255,255,0.23)" stroke-width="1.2"/>
<rect x="100.62" y="215.05" width="19.12" height="272.95" fill="url(#goGrad)" stroke="rgba(255,255,255,0.15)" stroke-width="1.5" filter="url(#barShadow)"/>
<rect x="121.88" y="453.61" width="19.12" height="34.39" fill="none" stroke="rgba(255,255,255,0.23)" stroke-width="1.2"/>
<rect x="121.88" y="453.61" width="19.12" height="34.39" fill="url(#tsGrad)" stroke="rgba(255,255,255,0.15)" stroke-width="1.5" filter="url(#barShadow)"/>
<line x1="132.50" y1="488.00" x2="132.50" y2="494.00" stroke="rgba(255,255,255,0.45)" stroke-width="1"/>
<text x="132.50" y="508.00" text-anchor="middle" font-family="sans-serif" font-size="13" fill="rgba(255,255,255,0.45)">n100</text>
<rect x="185.62" y="177.17" width="19.12" height="310.83" fill="none" stroke="rgba(255,255,255,0.23)" stroke-width="1.2"/>
<rect x="185.62" y="177.17" width="19.12" height="310.83" fill="url(#goGrad)" stroke="rgba(255,255,255,0.15)" stroke-width="1.5" filter="url(#barShadow)"/>
<rect x="206.88" y="293.36" width="19.12" height="194.64" fill="none" stroke="rgba(255,255,255,0.23)" stroke-width="1.2"/>
<rect x="206.88" y="293.36" width="19.12" height="194.64" fill="url(#tsGrad)" stroke="rgba(255,255,255,0.15)" stroke-width="1.5" filter="url(#barShadow)"/>
<line x1="217.50" y1="488.00" x2="217.50" y2="494.00" stroke="rgba(255,255,255,0.45)" stroke-width="1"/>
<text x="217.50" y="508.00" text-anchor="middle" font-family="sans-serif" font-size="13" fill="rgba(255,255,255,0.45)">n200</text>
<rect x="270.62" y="158.80" width="19.12" height="329.20" fill="none" stroke="rgba(255,255,255,0.23)" stroke-width="1.2"/>
<rect x="270.62" y="158.80" width="19.12" height="329.20" fill="url(#goGrad)" stroke="rgba(255,255,255,0.15)" stroke-width="1.5" filter="url(#barShadow)"/>
<rect x="291.88" y="258.41" width="19.12" height="229.59" fill="none" stroke="rgba(255,255,255,0.23)" stroke-width="1.2"/>
<rect x="291.88" y="258.41" width="19.12" height="229.59" fill="url(#tsGrad)" stroke="rgba(255,255,255,0.15)" stroke-width="1.5" filter="url(#barShadow)"/>
<line x1="302.50" y1="488.00" x2="302.50" y2="494.00" stroke="rgba(255,255,255,0.45)" stroke-width="1"/>
<text x="302.50" y="508.00" text-anchor="middle" font-family="sans-serif" font-size="13" fill="rgba(255,255,255,0.45)">n300</text>
<rect x="355.62" y="140.82" width="19.12" height="347.18" fill="none" stroke="rgba(255,255,255,0.23)" stroke-width="1.2"/>
<rect x="355.62" y="140.82" width="19.12" height="347.18" fill="url(#goGrad)" stroke="rgba(255,255,255,0.15)" stroke-width="1.5" filter="url(#barShadow)"/>
<rect x="376.88" y="199.62" width="19.12" height="288.38" fill="none" stroke="rgba(255,255,255,0.23)" stroke-width="1.2"/>
<rect x="376.88" y="199.62" width="19.12" height="288.38" fill="url(#tsGrad)" stroke="rgba(255,255,255,0.15)" stroke-width="1.5" filter="url(#barShadow)"/>
<line x1="387.50" y1="488.00" x2="387.50" y2="494.00" stroke="rgba(255,255,255,0.45)" stroke-width="1"/>
<text x="387.50" y="508.00" text-anchor="middle" font-family="sans-serif" font-size="13" fill="rgba(255,255,255,0.45)">n400</text>
<rect x="440.62" y="132.70" width="19.12" height="355.30" fill="none" stroke="rgba(255,255,255,0.23)" stroke-width="1.2"/>
<rect x="440.62" y="132.70" width="19.12" height="355.30" fill="url(#goGrad)" stroke="rgba(255,255,255,0.15)" stroke-width="1.5" filter="url(#barShadow)"/>
<rect x="461.88" y="183.85" width="19.12" height="304.15" fill="none" stroke="rgba(255,255,255,0.23)" stroke-width="1.2"/>
<rect x="461.88" y="183.85" width="19.12" height="304.15" fill="url(#tsGrad)" stroke="rgba(255,255,255,0.15)" stroke-width="1.5" filter="url(#barShadow)"/>
<line x1="472.50" y1="488.00" x2="472.50" y2="494.00" stroke="rgba(255,255,255,0.45)" stroke-width="1"/>
<text x="472.50" y="508.00" text-anchor="middle" font-family="sans-serif" font-size="13" fill="rgba(255,255,255,0.45)">n500</text>
<rect x="525.62" y="117.71" width="19.12" height="370.29" fill="none" stroke="rgba(255,255,255,0.23)" stroke-width="1.2"/>
<rect x="525.62" y="117.71" width="19.12" height="370.29" fill="url(#goGrad)" stroke="rgba(255,255,255,0.15)" stroke-width="1.5" filter="url(#barShadow)"/>
<rect x="546.88" y="167.44" width="19.12" height="320.56" fill="none" stroke="rgba(255,255,255,0.23)" stroke-width="1.2"/>
<rect x="546.88" y="167.44" width="19.12" height="320.56" fill="url(#tsGrad)" stroke="rgba(255,255,255,0.15)" stroke-width="1.5" filter="url(#barShadow)"/>
<line x1="557.50" y1="488.00" x2="557.50" y2="494.00" stroke="rgba(255,255,255,0.45)" stroke-width="1"/>
<text x="557.50" y="508.00" text-anchor="middle" font-family="sans-serif" font-size="13" fill="rgba(255,255,255,0.45)">n600</text>
<rect x="610.62" y="108.67" width="19.12" height="379.33" fill="none" stroke="rgba(255,255,255,0.23)" stroke-width="1.2"/>
<rect x="610.62" y="108.67" width="19.12" height="379.33" fill="url(#goGrad)" stroke="rgba(255,255,255,0.15)" stroke-width="1.5" filter="url(#barShadow)"/>
<rect x="631.88" y="163.50" width="19.12" height="324.50" fill="none" stroke="rgba(255,255,255,0.23)" stroke-width="1.2"/>
<rect x="631.88" y="163.50" width="19.12" height="324.50" fill="url(#tsGrad)" stroke="rgba(255,255,255,0.15)" stroke-width="1.5" filter="url(#barShadow)"/>
<line x1="642.50" y1="488.00" x2="642.50" y2="494.00" stroke="rgba(255,255,255,0.45)" stroke-width="1"/>
<text x="642.50" y="508.00" text-anchor="middle" font-family="sans-serif" font-size="13" fill="rgba(255,255,255,0.45)">n700</text>
<rect x="695.62" y="215.05" width="19.12" height="272.95" fill="none" stroke="rgba(255,255,255,0.23)" stroke-width="1.2"/>
<rect x="695.62" y="215.05" width="19.12" height="272.95" fill="url(#goGrad)" stroke="rgba(255,255,255,0.15)" stroke-width="1.5" filter="url(#barShadow)"/>
<rect x="716.88" y="386.64" width="19.12" height="101.36" fill="none" stroke="rgba(255,255,255,0.23)" stroke-width="1.2"/>
<rect x="716.88" y="386.64" width="19.12" height="101.36" fill="url(#tsGrad)" stroke="rgba(255,255,255,0.15)" stroke-width="1.5" filter="url(#barShadow)"/>
<line x1="727.50" y1="488.00" x2="727.50" y2="494.00" stroke="rgba(255,255,255,0.45)" stroke-width="1"/>
<text x="727.50" y="508.00" text-anchor="middle" font-family="sans-serif" font-size="13" fill="rgba(255,255,255,0.45)">n800</text>
<rect x="780.62" y="89.80" width="19.12" height="398.20" fill="none" stroke="rgba(255,255,255,0.23)" stroke-width="1.2"/>
<rect x="780.62" y="89.80" width="19.12" height="398.20" fill="url(#goGrad)" stroke="rgba(255,255,255,0.15)" stroke-width="1.5" filter="url(#barShadow)"/>
<rect x="801.88" y="99.41" width="19.12" height="388.59" fill="none" stroke="rgba(255,255,255,0.23)" stroke-width="1.2"/>
<rect x="801.88" y="99.41" width="19.12" height="388.59" fill="url(#tsGrad)" stroke="rgba(255,255,255,0.15)" stroke-width="1.5" filter="url(#barShadow)"/>
<line x1="812.50" y1="488.00" x2="812.50" y2="494.00" stroke="rgba(255,255,255,0.45)" stroke-width="1"/>
<text x="812.50" y="508.00" text-anchor="middle" font-family="sans-serif" font-size="13" fill="rgba(255,255,255,0.45)">n900</text>
<rect x="865.62" y="86.89" width="19.12" height="401.11" fill="none" stroke="rgba(255,255,255,0.23)" stroke-width="1.2"/>
<rect x="865.62" y="86.89" width="19.12" height="401.11" fill="url(#goGrad)" stroke="rgba(255,255,255,0.15)" stroke-width="1.5" filter="url(#barShadow)"/>
<rect x="886.88" y="106.18" width="19.12" height="381.82" fill="none" stroke="rgba(255,255,255,0.23)" stroke-width="1.2"/>
<rect x="886.88" y="106.18" width="19.12" height="381.82" fill="url(#tsGrad)" stroke="rgba(255,255,255,0.15)" stroke-width="1.5" filter="url(#barShadow)"/>
<line x1="897.50" y1="488.00" x2="897.50" y2="494.00" stroke="rgba(255,255,255,0.45)" stroke-width="1"/>
<text x="897.50" y="508.00" text-anchor="middle" font-family="sans-serif" font-size="13" fill="rgba(255,255,255,0.45)">n1000</text>
<path d="M 90.00 180.02 L 100.62 179.43 L 111.25 178.79 L 121.88 178.10 L 132.50 177.35 L 143.12 176.56 L 153.75 175.72 L 164.38 174.84 L 175.00 173.92 L 185.62 172.96 L 196.25 171.97 L 206.88 170.94 L 217.50 169.88 L 228.12 168.79 L 238.75 167.68 L 249.38 166.55 L 260.00 165.39 L 270.62 164.21 L 281.25 163.02 L 291.88 161.81 L 302.50 160.59 L 313.12 159.35 L 323.75 158.11 L 334.38 156.85 L 345.00 155.59 L 355.62 154.32 L 366.25 153.05 L 376.88 151.77 L 387.50 150.49 L 398.12 149.21 L 408.75 147.93 L 419.38 146.65 L 430.00 145.36 L 440.62 144.09 L 451.25 142.81 L 461.88 141.53 L 472.50 140.26 L 483.12 139.00 L 493.75 137.74 L 504.38 136.48 L 515.00 135.23 L 525.62 133.98 L 536.25 132.75 L 546.88 131.51 L 557.50 130.29 L 568.12 129.07 L 578.75 127.86 L 589.38 126.65 L 600.00 125.46 L 610.62 124.27 L 621.25 123.09 L 631.88 121.92 L 642.50 120.75 L 653.12 119.59 L 663.75 118.44 L 674.38 117.30 L 685.00 116.17 L 695.62 115.05 L 706.25 113.93 L 716.88 112.83 L 727.50 111.73 L 738.12 110.64 L 748.75 109.55 L 759.38 108.48 L 770.00 107.41 L 780.62 106.35 L 791.25 105.30 L 801.88 104.26 L 812.50 103.23 L 823.12 102.20 L 833.75 101.19 L 844.38 100.18 L 855.00 99.17 L 865.62 98.18 L 876.25 97.19 L 886.88 96.21 L 897.50 95.24 L 908.12 94.28 L 918.75 93.32 L 929.38 92.37 L 940.00 91.43" fill="none" stroke="#00ADD8" stroke-width="1.5" stroke-dasharray="4 3" opacity="0.9"/>
<text x="930.0" y="100.0" text-anchor="end" font-family="sans-serif" font-size="13" font-weight="700" fill="#00ADD8" paint-order="stroke" stroke="#1E1E20" stroke-width="3">O(n^2)</text>
<path d="M 90.00 236.88 L 100.62 241.82 L 111.25 246.90 L 121.88 252.13 L 132.50 257.47 L 143.12 262.92 L 153.75 268.41 L 164.38 273.91 L 175.00 279.31 L 185.62 284.53 L 196.25 289.42 L 206.88 293.81 L 217.50 297.51 L 228.12 300.33 L 238.75 302.10 L 249.38 302.69 L 260.00 302.07 L 270.62 300.28 L 281.25 297.44 L 291.88 293.73 L 302.50 289.33 L 313.12 284.43 L 323.75 279.21 L 334.38 273.80 L 345.00 268.30 L 355.62 262.81 L 366.25 257.37 L 376.88 252.02 L 387.50 246.80 L 398.12 241.72 L 408.75 236.78 L 419.38 232.00 L 430.00 227.37 L 440.62 222.89 L 451.25 218.55 L 461.88 214.36 L 472.50 210.31 L 483.12 206.38 L 493.75 202.58 L 504.38 198.90 L 515.00 195.34 L 525.62 191.88 L 536.25 188.52 L 546.88 185.27 L 557.50 182.10 L 568.12 179.02 L 578.75 176.03 L 589.38 173.12 L 600.00 170.29 L 610.62 167.53 L 621.25 164.83 L 631.88 162.21 L 642.50 159.65 L 653.12 157.15 L 663.75 154.70 L 674.38 152.32 L 685.00 149.98 L 695.62 147.70 L 706.25 145.47 L 716.88 143.28 L 727.50 141.14 L 738.12 139.04 L 748.75 136.98 L 759.38 134.97 L 770.00 132.99 L 780.62 131.05 L 791.25 129.15 L 801.88 127.28 L 812.50 125.44 L 823.12 123.64 L 833.75 121.87 L 844.38 120.12 L 855.00 118.41 L 865.62 116.73 L 876.25 115.07 L 886.88 113.44 L 897.50 111.84 L 908.12 110.26 L 918.75 108.70 L 929.38 107.17 L 940.00 105.66" fill="none" stroke="#3178C6" stroke-width="1.5" stroke-dasharray="4 3" opacity="0.9"/>
<text x="930.0" y="161.7" text-anchor="end" font-family="sans-serif" font-size="13" font-weight="700" fill="#3178C6" paint-order="stroke" stroke="#1E1E20" stroke-width="3">mixed</text>
<text x="490.0" y="30" text-anchor="middle" font-family="sans-serif" font-size="16" font-weight="700" fill="#FFFFFF">Bubble Sort - Grouped Bars</text>
<text x="490.0" y="50" text-anchor="middle" font-family="sans-serif" font-size="13" fill="rgba(255,255,255,0.45)">Grouped bars per dataset size with statistical overlays</text>
<text x="515.0" y="534.0" text-anchor="middle" font-family="sans-serif" font-size="14" font-weight="700" fill="rgba(255,255,255,0.45)">Benchmark (natural order)</text>
<text x="14.0" y="290.0" transform="rotate(-90 14.0 290.0)" text-anchor="middle" font-family="sans-serif" font-size="14" font-weight="700" fill="rgba(255,255,255,0.45)">bytes/op (log10 scale)</text>
<rect x="100.0" y="94.0" width="118" height="98.0" rx="8" fill="#1E1E20" stroke="rgba(255,255,255,0.14)" stroke-width="1"/>
<rect x="100.0" y="94.0" width="118" height="98.0" rx="8" fill="rgba(255,255,255,0.015)" fill-opacity="0.15"/>
<text x="110.0" y="110.0" font-family="sans-serif" font-size="11" font-weight="600" fill="rgba(255,255,255,0.45)">Legend</text>
<circle cx="112.0" cy="129.0" r="4.5" fill="#00ADD8"/>
<text x="122.0" y="132.0" font-family="sans-serif" font-size="11" fill="#FFFFFF">Go</text>
<circle cx="112.0" cy="151.0" r="4.5" fill="#3178C6"/>
<text x="122.0" y="154.0" font-family="sans-serif" font-size="11" fill="#FFFFFF">TypeScript</text>
<circle cx="112.0" cy="173.0" r="4.5" fill="#DEA584"/>
<text x="122.0" y="176.0" font-family="sans-serif" font-size="11" fill="#FFFFFF">Rust</text>
<rect x="90.0" y="552.0" width="850.0" height="104.0" rx="8" fill="rgba(255,255,255,0.015)" stroke="rgba(255,255,255,0.14)" stroke-width="1"/>
<circle cx="110.0" cy="572.0" r="5" fill="#00ADD8"/>
<text x="120.0" y="576.0" font-family="sans-serif" font-size="11" font-weight="700" fill="#FFFFFF">Go</text>
<circle cx="109.0" cy="586.0" r="2.8" fill="#FFBA07"/>
<text x="116.0" y="590.0" font-family="sans-serif" font-size="11" fill="rgba(255,255,255,0.45)">
mean: 4.89 KB/op</text>
<circle cx="109.0" cy="602.0" r="2.8" fill="#FFBA07"/>
<text x="116.0" y="606.0" font-family="sans-serif" font-size="11" fill="rgba(255,255,255,0.45)">min / max: 858 B/op / 11.09 KB/op</text>
<circle cx="109.0" cy="618.0" r="2.8" fill="#FFBA07"/>
<text x="116.0" y="622.0" font-family="sans-serif" font-size="11" fill="rgba(255,255,255,0.45)">samples: 2,	R²: 0.609</text>
<circle cx="109.0" cy="634.0" r="2.8" fill="#FFBA07"/>
<text x="116.0" y="638.0" font-family="sans-serif" font-size="11" fill="rgba(255,255,255,0.45)">equation: y = 1651.16 + 0.01·x²</text>
<line x1="515.0" y1="564.0" x2="515.0" y2="646.0" stroke="rgba(255,255,255,0.14)" stroke-width="1" stroke-opacity="0.5"/>
<circle cx="531.0" cy="572.0" r="5" fill="#3178C6"/>
<text x="541.0" y="576.0" font-family="sans-serif" font-size="11" font-weight="700" fill="#FFFFFF">TypeScript</text>
<circle cx="530.0" cy="586.0" r="2.8" fill="#FFBA07"/>
<text x="537.0" y="590.0" font-family="sans-serif" font-size="11" fill="rgba(255,255,255,0.45)">
mean: 2.40 KB/op</text>
<circle cx="530.0" cy="602.0" r="2.8" fill="#FFBA07"/>
<text x="537.0" y="606.0" font-family="sans-serif" font-size="11" fill="rgba(255,255,255,0.45)">min / max: 7 B/op / 8.62 KB/op</text>
<circle cx="530.0" cy="618.0" r="2.8" fill="#FFBA07"/>
<text x="537.0" y="622.0" font-family="sans-serif" font-size="11" fill="rgba(255,255,255,0.45)">samples: 2,	R²: 0.695</text>
<circle cx="530.0" cy="634.0" r="2.8" fill="#FFBA07"/>
<text x="537.0" y="638.0" font-family="sans-serif" font-size="11" fill="rgba(255,255,255,0.45)">equation: y = 1176.68 + -7.67·x +…</text>
</svg>
