<svg xmlns="http://www.w3.org/2000/svg" width="980" height="680" viewBox="0 0 980 680">
<rect width="980" height="680" fill="#1E1E20"/>
<rect x="0.5" y="0.5" width="979" height="679" fill="none" stroke="rgba(255,255,255,0.12)" rx="10"/>
<defs>
<linearGradient id="goGrad" x1="0" y1="0" x2="1" y2="0">
<stop offset="0%" stop-color="#00ADD8" stop-opacity="0.95"/>
<stop offset="100%" stop-color="#0891B2" stop-opacity="0.8"/>
</linearGradient>
<linearGradient id="tsGrad" x1="0" y1="0" x2="1" y2="0">
<stop offset="0%" stop-color="#3178C6" stop-opacity="0.95"/>
<stop offset="100%" stop-color="#1D4ED8" stop-opacity="0.8"/>
</linearGradient>
<linearGradient id="rustGrad" x1="0" y1="0" x2="1" y2="0">
<stop offset="0%" stop-color="#DEA584" stop-opacity="0.95"/>
<stop offset="100%" stop-color="#B7410E" stop-opacity="0.8"/>
</linearGradient>
<filter id="barShadow" x="-5%" y="-15%" width="110%" height="140%">
<feDropShadow dx="0" dy="2" stdDeviation="2" flood-opacity="0.25"/>
</filter>
</defs>
<rect x="90.0" y="84.0" width="850.0" height="404.0" rx="8" fill="rgba(255,255,255,0.02)"/>
<line x1="90.0" y1="488.0" x2="940.0" y2="488.0" stroke="rgba(255,255,255,0.45)" stroke-width="1.2"/>
<line x1="90.0" y1="84.0" x2="90.0" y2="488.0" stroke="rgba(255,255,255,0.45)" stroke-width="1.2"/>
<line x1="90.0" y1="234.7" x2="940.0" y2="234.7" stroke="rgba(255,255,255,0.10)"/>
<line x1="84.0" y1="234.7" x2="90.0" y2="234.7" stroke="rgba(255,255,255,0.45)" stroke-width="1"/>
<text x="82.0" y="238.7" text-anchor="end" font-family="sans-serif" font-size="13" fill="rgba(255,255,255,0.45)">1699</text>
<line x1="90.0" y1="411.3" x2="940.0" y2="411.3" stroke="rgba(255,255,255,0.10)"/>
<line x1="84.0" y1="411.3" x2="90.0" y2="411.3" stroke="rgba(255,255,255,0.45)" stroke-width="1"/>
<text x="82.0" y="415.3" text-anchor="end" font-family="sans-serif" font-size="13" fill="rgba(255,255,255,0.45)">170</text>
<line x1="90.0" y1="488.0" x2="940.0" y2="488.0" stroke="rgba(255,255,255,0.10)"/>
<line x1="84.0" y1="488.0" x2="90.0" y2="488.0" stroke="rgba(255,255,255,0.45)" stroke-width="1"/>
<text x="82.0" y="492.0" text-anchor="end" font-family="sans-serif" font-size="13" fill="rgba(255,255,255,0.45)">0</text>
<line x1="90.0" y1="84.0" x2="90.0" y2="488.0" stroke="rgba(255,255,255,0.10)"/>
<line x1="90.0" y1="488.0" x2="90.0" y2="494.0" stroke="rgba(255,255,255,0.45)" stroke-width="1"/>
<text x="90.0" y="508.0" text-anchor="middle" font-family="sans-serif" font-size="13" fill="rgba(255,255,255,0.45)">n100</text>
<line x1="184.4" y1="84.0" x2="184.4" y2="488.0" stroke="rgba(255,255,255,0.10)"/>
<line x1="184.4" y1="488.0" x2="184.4" y2="494.0" stroke="rgba(255,255,255,0.45)" stroke-width="1"/>
<text x="184.4" y="508.0" text-anchor="middle" font-family="sans-serif" font-size="13" fill="rgba(255,255,255,0.45)">n200</text>
<line x1="278.9" y1="84.0" x2="278.9" y2="488.0" stroke="rgba(255,255,255,0.10)"/>
<line x1="278.9" y1="488.0" x2="278.9" y2="494.0" stroke="rgba(255,255,255,0.45)" stroke-width="1"/>
<text x="278.9" y="508.0" text-anchor="middle" font-family="sans-serif" font-size="13" fill="rgba(255,255,255,0.45)">n300</text>
<line x1="373.3" y1="84.0" x2="373.3" y2="488.0" stroke="rgba(255,255,255,0.10)"/>
<line x1="373.3" y1="488.0" x2="373.3" y2="494.0" stroke="rgba(255,255,255,0.45)" stroke-width="1"/>
<text x="373.3" y="508.0" text-anchor="middle" font-family="sans-serif" font-size="13" fill="rgba(255,255,255,0.45)">n400</text>
<line x1="467.8" y1="84.0" x2="467.8" y2="488.0" stroke="rgba(255,255,255,0.10)"/>
<line x1="467.8" y1="488.0" x2="467.8" y2="494.0" stroke="rgba(255,255,255,0.45)" stroke-width="1"/>
<text x="467.8" y="508.0" text-anchor="middle" font-family="sans-serif" font-size="13" fill="rgba(255,255,255,0.45)">n500</text>
<line x1="562.2" y1="84.0" x2="562.2" y2="488.0" stroke="rgba(255,255,255,0.10)"/>
<line x1="562.2" y1="488.0" x2="562.2" y2="494.0" stroke="rgba(255,255,255,0.45)" stroke-width="1"/>
<text x="562.2" y="508.0" text-anchor="middle" font-family="sans-serif" font-size="13" fill="rgba(255,255,255,0.45)">n600</text>
<line x1="656.7" y1="84.0" x2="656.7" y2="488.0" stroke="rgba(255,255,255,0.10)"/>
<line x1="656.7" y1="488.0" x2="656.7" y2="494.0" stroke="rgba(255,255,255,0.45)" stroke-width="1"/>
<text x="656.7" y="508.0" text-anchor="middle" font-family="sans-serif" font-size="13" fill="rgba(255,255,255,0.45)">n700</text>
<line x1="751.1" y1="84.0" x2="751.1" y2="488.0" stroke="rgba(255,255,255,0.10)"/>
<line x1="751.1" y1="488.0" x2="751.1" y2="494.0" stroke="rgba(255,255,255,0.45)" stroke-width="1"/>
<text x="751.1" y="508.0" text-anchor="middle" font-family="sans-serif" font-size="13" fill="rgba(255,255,255,0.45)">n800</text>
<line x1="845.6" y1="84.0" x2="845.6" y2="488.0" stroke="rgba(255,255,255,0.10)"/>
<line x1="845.6" y1="488.0" x2="845.6" y2="494.0" stroke="rgba(255,255,255,0.45)" stroke-width="1"/>
<text x="845.6" y="508.0" text-anchor="middle" font-family="sans-serif" font-size="13" fill="rgba(255,255,255,0.45)">n900</text>
<line x1="940.0" y1="84.0" x2="940.0" y2="488.0" stroke="rgba(255,255,255,0.10)"/>
<line x1="940.0" y1="488.0" x2="940.0" y2="494.0" stroke="rgba(255,255,255,0.45)" stroke-width="1"/>
<text x="940.0" y="508.0" text-anchor="middle" font-family="sans-serif" font-size="13" fill="rgba(255,255,255,0.45)">n1000</text>
<circle cx="90.00" cy="234.72" r="3.5" fill="#00ADD8" stroke="rgba(255,255,255,0.15)" stroke-width="1.2" filter="url(#barShadow)"/>
<circle cx="184.44" cy="228.52" r="3.5" fill="#00ADD8" stroke="rgba(255,255,255,0.15)" stroke-width="1.2" filter="url(#barShadow)"/>
<circle cx="278.89" cy="199.99" r="3.5" fill="#00ADD8" stroke="rgba(255,255,255,0.15)" stroke-width="1.2" filter="url(#barShadow)"/>
<circle cx="373.33" cy="171.96" r="3.5" fill="#00ADD8" stroke="rgba(255,255,255,0.15)" stroke-width="1.2" filter="url(#barShadow)"/>
<circle cx="467.78" cy="159.44" r="3.5" fill="#00ADD8" stroke="rgba(255,255,255,0.15)" stroke-width="1.2" filter="url(#barShadow)"/>
<circle cx="562.22" cy="135.74" r="3.5" fill="#00ADD8" stroke="rgba(255,255,255,0.15)" stroke-width="1.2" filter="url(#barShadow)"/>
<circle cx="656.67" cy="121.51" r="3.5" fill="#00ADD8" stroke="rgba(255,255,255,0.15)" stroke-width="1.2" filter="url(#barShadow)"/>
<circle cx="751.11" cy="114.47" r="3.5" fill="#00ADD8" stroke="rgba(255,255,255,0.15)" stroke-width="1.2" filter="url(#barShadow)"/>
<circle cx="845.56" cy="92.06" r="3.5" fill="#00ADD8" stroke="rgba(255,255,255,0.15)" stroke-width="1.2" filter="url(#barShadow)"/>
<circle cx="940.00" cy="87.01" r="3.5" fill="#00ADD8" stroke="rgba(255,255,255,0.15)" stroke-width="1.2" filter="url(#barShadow)"/>
<path d="M 90.00 234.72 L 184.44 228.52 L 278.89 199.99 L 373.33 171.96 L 467.78 159.44 L 562.22 135.74 L 656.67 121.51 L 751.11 114.47 L 845.56 92.06 L 940.00 87.01" fill="none" stroke="#00ADD8" stroke-width="2"/>
<path d="M 90.00 246.55 L 100.62 243.31 L 111.25 240.12 L 121.88 236.97 L 132.50 233.87 L 143.12 230.82 L 153.75 227.81 L 164.38 224.85 L 175.00 221.92 L 185.62 219.05 L 196.25 216.21 L 206.88 213.42 L 217.50 210.67 L 228.12 207.95 L 238.75 205.28 L 249.38 202.64 L 260.00 200.05 L 270.62 197.49 L 281.25 194.96 L 291.88 192.47 L 302.50 190.02 L 313.12 187.59 L 323.75 185.20 L 334.38 182.85 L 345.00 180.52 L 355.62 178.23 L 366.25 175.97 L 376.88 173.73 L 387.50 171.53 L 398.12 169.35 L 408.75 167.20 L 419.38 165.07 L 430.00 162.98 L 440.62 160.91 L 451.25 158.86 L 461.88 156.84 L 472.50 154.84 L 483.12 152.87 L 493.75 150.92 L 504.38 148.99 L 515.00 147.09 L 525.62 145.21 L 536.25 143.34 L 546.88 141.50 L 557.50 139.68 L 568.12 137.88 L 578.75 136.10 L 589.38 134.34 L 600.00 132.59 L 610.62 130.87 L 621.25 129.16 L 631.88 127.47 L 642.50 125.80 L 653.12 124.15 L 663.75 122.51 L 674.38 120.89 L 685.00 119.28 L 695.62 117.70 L 706.25 116.12 L 716.88 114.56 L 727.50 113.02 L 738.12 111.49 L 748.75 109.98 L 759.38 108.48 L 770.00 106.99 L 780.62 105.52 L 791.25 104.06 L 801.88 102.61 L 812.50 101.18 L 823.12 99.76 L 833.75 98.35 L 844.38 96.96 L 855.00 95.57 L 865.62 94.20 L 876.25 92.84 L 886.88 91.50 L 897.50 90.16 L 908.12 88.83 L 918.75 87.52 L 929.38 86.22 L 940.00 84.92" fill="none" stroke="#00ADD8" stroke-width="1.5" stroke-dasharray="4 3" opacity="0.9"/>
<text x="930.0" y="100.0" text-anchor="end" font-family="sans-serif" font-size="13" font-weight="700" fill="#00ADD8" paint-order="stroke" stroke="#1E1E20" stroke-width="3">mixed</text>
<text x="490.0" y="30" text-anchor="middle" font-family="sans-serif" font-size="16" font-weight="700" fill="#FFFFFF">Bubble Sort - O(n²)</text>
<text x="490.0" y="50" text-anchor="middle" font-family="sans-serif" font-size="13" fill="rgba(255,255,255,0.45)">Classic bubble sort - quadratic trend with regression + error overlays</text>
<text x="515.0" y="534.0" text-anchor="middle" font-family="sans-serif" font-size="14" font-weight="700" fill="rgba(255,255,255,0.45)">Benchmark (natural order)</text>
<text x="14.0" y="290.0" transform="rotate(-90 14.0 290.0)" text-anchor="middle" font-family="sans-serif" font-size="14" font-weight="700" fill="rgba(255,255,255,0.45)">bytes/op (symlog scale)</text>
<rect x="100.0" y="94.0" width="118" height="54.0" rx="8" fill="#1E1E20" stroke="rgba(255,255,255,0.14)" stroke-width="1"/>
<rect x="100.0" y="94.0" width="118" height="54.0" rx="8" fill="rgba(255,255,255,0.015)" fill-opacity="0.15"/>
<text x="110.0" y="110.0" font-family="sans-serif" font-size="11" font-weight="600" fill="rgba(255,255,255,0.45)">Legend</text>
<circle cx="112.0" cy="129.0" r="4.5" fill="#00ADD8"/>
<text x="122.0" y="132.0" font-family="sans-serif" font-size="11" fill="#FFFFFF">Go</text>
<rect x="90.0" y="552.0" width="850.0" height="104.0" rx="8" fill="rgba(255,255,255,0.015)" stroke="rgba(255,255,255,0.14)" stroke-width="1"/>
<circle cx="110.0" cy="572.0" r="5" fill="#00ADD8"/>
<text x="120.0" y="576.0" font-family="sans-serif" font-size="11" font-weight="700" fill="#FFFFFF">Go</text>
<circle cx="109.0" cy="586.0" r="2.8" fill="#FFBA07"/>
<text x="116.0" y="590.0" font-family="sans-serif" font-size="11" fill="rgba(255,255,255,0.45)">
mean: 5.75 KB/op</text>
<circle cx="109.0" cy="602.0" r="2.8" fill="#FFBA07"/>
<text x="116.0" y="606.0" font-family="sans-serif" font-size="11" fill="rgba(255,255,255,0.45)">min / max: 1.66 KB/op / 11.39 KB/op</text>
<circle cx="109.0" cy="618.0" r="2.8" fill="#FFBA07"/>
<text x="116.0" y="622.0" font-family="sans-serif" font-size="11" fill="rgba(255,255,255,0.45)">samples: 4,	R²: 0.990</text>
<circle cx="109.0" cy="634.0" r="2.8" fill="#FFBA07"/>
<text x="116.0" y="638.0" font-family="sans-serif" font-size="11" fill="rgba(255,255,255,0.45)">equation: y = 974.00 + 4.13·x + 0…</text>
</svg>
